<?xml version="1.0" encoding="UTF-8"?>
<svg width="40px" height="40px" viewBox="0 0 40 40" version="1.1" xmlns="http://www.w3.org/2000/svg" xmlns:xlink="http://www.w3.org/1999/xlink">
    <!-- Generator: Sketch 64 (93537) - https://sketch.com -->
    <title>矩形</title>
    <desc>Created with Sketch.</desc>
    <defs>
        <filter x="-9.0%" y="-17.9%" width="118.0%" height="135.8%" filterUnits="objectBoundingBox" id="filter-1">
            <feOffset dx="0" dy="4" in="SourceAlpha" result="shadowOffsetOuter1"></feOffset>
            <feGaussianBlur stdDeviation="6" in="shadowOffsetOuter1" result="shadowBlurOuter1"></feGaussianBlur>
            <feColorMatrix values="0 0 0 0 0   0 0 0 0 0   0 0 0 0 0  0 0 0 0.08 0" type="matrix" in="shadowBlurOuter1" result="shadowMatrixOuter1"></feColorMatrix>
            <feMerge>
                <feMergeNode in="shadowMatrixOuter1"></feMergeNode>
                <feMergeNode in="SourceGraphic"></feMergeNode>
            </feMerge>
        </filter>
    </defs>
    <g id="页面-1" stroke="none" stroke-width="1" fill="none" fill-rule="evenodd">
        <g id="12" transform="translate(-56.000000, -709.000000)">
            <g id="矩形-2" filter="url(#filter-1)" transform="translate(16.000000, 586.000000)">
                <g id="编组-7" transform="translate(0.000000, 113.000000)">
                    <g id="编组-5" transform="translate(40.000000, 10.000000)">
                        <g id="编组-13备份-2">
                            <g id="77" transform="translate(4.000000, 4.000000)">
                                <rect id="矩形" fill="#161F3D" fill-rule="nonzero" opacity="0" x="0" y="0" width="32" height="32"></rect>
                                <path d="M15.5405327,6.2343836 C15.4032589,6.32327613 15.2890608,6.45637651 15.208276,6.62694676 L13.3513399,10.5453757 C12.9027048,11.4955151 12.0267839,12.1456516 11.0220494,12.297211 L6.871067,12.9252385 C6.7002129,12.9511426 6.5529347,13.0222596 6.43619108,13.1248617 C6.29945053,13.2450386 6.20360213,13.4046504 6.14978413,13.5772625 C6.09384142,13.7566893 6.08290583,13.9519395 6.12736258,14.1396711 C6.16707279,14.3073589 6.25256201,14.4679291 6.38710189,14.6045966 L9.3910758,17.6547231 C10.1030153,18.3766553 10.4332434,19.4167889 10.2660673,20.4398913 L9.5563295,24.7488763 C9.50484884,25.0610853 9.58770232,25.3474444 9.75774956,25.5579987 C9.92256272,25.762072 10.1667139,25.8999836 10.4333671,25.8999836 C10.5656972,25.8999836 10.7011904,25.8637789 10.832969,25.7917284 L14.5447155,23.758271 C15.0020547,23.5088149 15.5008854,23.3853836 15.99945,23.3853836 C16.4995511,23.3853836 16.9981412,23.5089217 17.453503,23.7572972 L21.1678398,25.792171 C21.2988096,25.8637789 21.4343028,25.8999836 21.5666329,25.8999836 C21.8332861,25.8999836 22.0774373,25.762072 22.2422504,25.5579987 C22.4122977,25.3474444 22.4951512,25.0610853 22.4437019,24.7490669 L21.7341599,20.4412763 C21.5667566,19.4167889 21.8969847,18.3766553 22.6094292,17.6542106 L25.613069,14.6044231 C25.747438,14.4679291 25.8329272,14.3073589 25.8726374,14.1396711 C25.9170942,13.9519395 25.9061586,13.7566893 25.8502159,13.5772625 C25.7963979,13.4046504 25.7005495,13.2450386 25.5638089,13.1248617 C25.4470653,13.0222596 25.2997871,12.9511426 25.1285939,12.9251872 L20.9774711,12.2971385 C19.9732161,12.1456516 19.0972952,11.4955151 18.6479995,10.5439791 L16.7918325,6.62717567 C16.7109515,6.45640256 16.5967718,6.32332059 16.459454,6.23445431 C16.3200993,6.14426985 16.159622,6.10001639 15.5405327,6.2343836 Z" id="star_favorite-[#1499]" stroke="#F7B500" stroke-width="2.20003278" fill="#F7B500"></path>
                            </g>
                        </g>
                    </g>
                </g>
            </g>
        </g>
    </g>
</svg>