<?xml version="1.0" encoding="UTF-8"?>
<svg width="32px" height="32px" viewBox="0 0 32 32" version="1.1" xmlns="http://www.w3.org/2000/svg" xmlns:xlink="http://www.w3.org/1999/xlink">
    <!-- Generator: Sketch 64 (93537) - https://sketch.com -->
    <title>矩形</title>
    <desc>Created with Sketch.</desc>
    <g id="页面-1" stroke="none" stroke-width="1" fill="none" fill-rule="evenodd">
        <g id="01" transform="translate(-135.000000, -718.000000)">
            <g id="编组-3备份-2" transform="translate(127.000000, 708.000000)">
                <g id="楼层" transform="translate(8.000000, 10.000000)">
                    <rect id="矩形" fill="#000000" fill-rule="nonzero" opacity="0" x="0" y="0" width="32" height="32"></rect>
                    <path d="M5.59335966,13.8581639 L14.5642021,20.5693193 C15.3562184,21.0632172 16.6446517,21.0632172 17.4357979,20.5693193 L26.4066403,13.8581639 C27.1977866,13.3651472 27.1977866,12.562119 26.4066403,12.0682212 L17.4357979,6.36976251 C16.6446517,5.87674583 15.3562184,5.87674583 14.5642021,6.36976251 L5.59335966,12.0682496 C4.80224151,12.5621475 4.80224151,13.3651757 5.59335966,13.8581639 Z M15.999986,7.90120124 L24.1998622,12.9636616 C24.2156638,12.9147976 24.2805542,12.9920873 24.1998622,12.9636616 L16.9954864,18.7074309 C16.4464161,19.0378805 15.5544259,19.0378805 15.0062538,18.7074309 L7.80097979,12.9636616 L15.999986,7.90120124 L15.999986,7.90120124 Z M26.4066403,17.1298003 L26.2031562,17.0232036 L17.4357979,23.6055618 C16.6446517,24.0994597 15.3562184,24.0994597 14.5642021,23.6055618 L5.79771383,17.0232036 L5.59335966,17.1298003 C4.80221345,17.6236981 4.80221345,18.4267263 5.59335966,18.9206242 L14.5642021,25.6308984 C15.3562184,26.1230339 16.6446517,26.1230339 17.4357979,25.6308984 L26.4066403,18.9206242 C27.1977585,18.4267263 27.1977585,17.6236981 26.4066403,17.1298003 L26.4066403,17.1298003 Z" id="形状" fill="#427CFE"></path>
                </g>
            </g>
        </g>
    </g>
</svg>