<?xml version="1.0" encoding="UTF-8"?>
<svg width="32px" height="32px" viewBox="0 0 32 32" version="1.1" xmlns="http://www.w3.org/2000/svg" xmlns:xlink="http://www.w3.org/1999/xlink">
    <!-- Generator: Sketch 64 (93537) - https://sketch.com -->
    <title>矩形</title>
    <desc>Created with Sketch.</desc>
    <g id="页面-1" stroke="none" stroke-width="1" fill="none" fill-rule="evenodd">
        <g id="01" transform="translate(-24.000000, -718.000000)">
            <g id="编组-3" transform="translate(16.000000, 710.000000)">
                <g id="编组-2" transform="translate(8.000000, 8.000000)">
                    <rect id="矩形" fill="#D8D8D8" opacity="0" x="0" y="0" width="32" height="32"></rect>
                    <path d="M16,12 C13.79,12 12,13.79 12,16 C12,18.21 13.79,20 16,20 C18.21,20 20,18.21 20,16 C20,13.79 18.21,12 16,12 L16,12 Z M24.94,15 C24.48,10.83 21.17,7.52 17,7.06 L17,5 L15,5 L15,7.06 C10.83,7.52 7.52,10.83 7.06,15 L5,15 L5,17 L7.06,17 C7.52,21.17 10.83,24.48 15,24.94 L15,27 L17,27 L17,24.94 C21.17,24.48 24.48,21.17 24.94,17 L27,17 L27,15 L24.94,15 L24.94,15 Z M16,23 C12.13,23 9,19.87 9,16 C9,12.13 12.13,9 16,9 C19.87,9 23,12.13 23,16 C23,19.87 19.87,23 16,23 L16,23 Z" id="Shape" fill="#A2AAB3"></path>
                </g>
            </g>
        </g>
    </g>
</svg>