<svg t="1587561788746" class="icon" viewBox="0 0 1024 1024" version="1.1" xmlns="http://www.w3.org/2000/svg" p-id="2132" width="32" height="32"><path d="M451.2 835.2c-102.4 0-198.4-38.4-272-112-150.4-150.4-150.4-393.6 0-544 150.4-150.4 393.6-150.4 544 0 73.6 73.6 112 169.6 112 272s-38.4 198.4-112 272c-12.8 12.8-32 12.8-44.8 0s-12.8-32 0-44.8c60.8-60.8 92.8-140.8 92.8-227.2S736 284.8 675.2 224C550.4 99.2 348.8 99.2 224 224c-124.8 124.8-124.8 326.4 0 451.2C284.8 736 364.8 768 451.2 768c25.6 0 54.4-3.2 80-9.6 16-3.2 35.2 6.4 38.4 22.4s-6.4 35.2-22.4 38.4c-32 9.6-64 16-96 16z" fill="#333333" p-id="2133"></path><path d="M924.8 956.8c-9.6 0-16-3.2-22.4-9.6l-227.2-227.2c-12.8-12.8-12.8-32 0-44.8s32-12.8 44.8 0l227.2 227.2c12.8 12.8 12.8 32 0 44.8-6.4 6.4-12.8 9.6-22.4 9.6z" fill="#333333" p-id="2134"></path></svg>