<svg t="1589450213953" class="icon" viewBox="0 0 1024 1024" version="1.1" xmlns="http://www.w3.org/2000/svg" p-id="5565" width="48" height="48">
    <path d="M446 325.7c0 37.2 30.2 67.4 67.4 67.4s67.4-30.2 67.4-67.4-30.2-67.4-67.4-67.4-67.4 30.2-67.4 67.4z m202.1 0c0 62.8-42.9 115.5-101.1 130.5v206.3c0 18.6-15.1 33.7-33.7 
    33.7s-33.7-15.1-33.7-33.7V456.2c-58.1-15-101.1-67.7-101.1-130.5 0-74.4 60.3-134.7 134.7-134.7 74.5 0 134.9 60.3 134.9 134.7zM378.6 628.9c-52.2 0-105.8 4.9-147.5 15.8-20.6 
    5.4-40.6 12.8-56.2 23.4-15.5 10.6-32.1 28.3-32.1 54.4 0 36.5 30.5 56.9 53 67.5 25.2 11.8 58.1 19.9 92.7 25.6 69.9 11.7 156.2 15.4 224.8 15.4 68.6 0 154.9-3.8 224.8-15.4 34.6-5.8 
    67.6-13.9 92.7-25.6 22.5-10.5 53-31 53-67.5 0-36.9-31.1-56.3-51.6-65.4-23.2-10.3-52-16.4-78.2-20.3-26.7-4-53.2-5.9-72.7-6.9-9.8-0.5-18.1-0.7-23.8-0.8-2.9-0.1-5.2-0.1-6.8-0.1h-2.6v33.7V629c-18.6 
    0-33.7 15.1-33.7 33.7s15.1 33.7 33.7 33.7h2c1.4 0 3.4 0 6 0.1 5.3 0.1 12.8 0.3 21.9 0.8 18.3 0.9 42.4 2.7 66.2 6.2 24.3 3.6 46 8.7 60.7 15.2 3.7 1.6 6.3 3.1 8.2 4.3-2.2 1.6-5.7 3.6-10.8 6-16.8 
    7.9-42.6 14.8-75.3 20.2-64.6 10.8-146.7 14.5-213.7 14.5s-149.1-3.7-213.7-14.5c-32.6-5.4-58.5-12.3-75.3-20.2-4.9-2.3-8.2-4.3-10.5-5.8 6.6-4.2 17.9-9 34.3-13.3 34.1-8.9 81.5-13.6 130.4-13.6 18.6 0 
    33.7-15.1 33.7-33.7 0.1-18.6-15-33.7-33.6-33.7zM817.2 726c0.1 0.3 0.2 0.4 0.3 0.4-0.1-0.1-0.2-0.3-0.3-0.4z m-0.1-6.8s-0.1 0.1-0.1 0.2c0.1-0.1 0.1-0.1 0.1-0.2z m-607.6 0s0.1 0.1 0.1 0.2c-0.1-0.1-0.1-0.2-0.1-0.2z 
    m-0.3 7.5c-0.1 0.2-0.2 0.3-0.2 0.3s0-0.1 0.2-0.3z" p-id="5566" fill="#d81e06">
    </path>
</svg>