<?xml version="1.0" encoding="UTF-8"?>
<svg width="40px" height="40px" viewBox="0 0 40 40" version="1.1" xmlns="http://www.w3.org/2000/svg" xmlns:xlink="http://www.w3.org/1999/xlink">
    <defs>
        <filter x="-9.0%" y="-17.9%" width="118.0%" height="135.8%" filterUnits="objectBoundingBox" id="filter-1">
            <feOffset dx="0" dy="4" in="SourceAlpha" result="shadowOffsetOuter1"></feOffset>
            <feGaussianBlur stdDeviation="6" in="shadowOffsetOuter1" result="shadowBlurOuter1"></feGaussianBlur>
            <feColorMatrix values="0 0 0 0 0   0 0 0 0 0   0 0 0 0 0  0 0 0 0.08 0" type="matrix" in="shadowBlurOuter1" result="shadowMatrixOuter1"></feColorMatrix>
            <feMerge>
                <feMergeNode in="shadowMatrixOuter1"></feMergeNode>
                <feMergeNode in="SourceGraphic"></feMergeNode>
            </feMerge>
        </filter>
    </defs>
    <g id="小程序" stroke="none" stroke-width="1" fill="none" fill-rule="evenodd">
        <g id="13" transform="translate(-48.000000, -622.000000)">
            <g id="矩形-2" filter="url(#filter-1)" transform="translate(16.000000, 586.000000)">
                <g id="编组-3备份-3" transform="translate(20.000000, 24.000000)">
                    <g id="wc" transform="translate(12.000000, 12.000000)">
                        <rect id="矩形" fill="#000000" fill-rule="nonzero" opacity="0" x="4" y="4" width="32" height="32"></rect>
                        <path d="M14.8,27.8 C13.37,27.8 12.213,28.97 12.213,30.4 C12.213,31.83 13.37,33 14.8,33 C16.23,33 17.4,31.83 17.4,30.4 C17.4,28.97 16.23,27.8 14.8,27.8 L14.8,27.8 Z M7,7 L7,9.6 L9.6,9.6 L14.28,19.467 L12.525,22.652 C12.317,23.016 12.2,23.445 12.2,23.9 C12.2,25.33 13.37,26.5 14.8,26.5 L30.4,26.5 L30.4,23.9 L15.346,23.9 C15.164,23.9 15.021,23.757 15.021,23.575 L15.06,23.419 L16.23,21.3 L25.915,21.3 C26.89,21.3 27.748,20.767 28.19,19.961 L32.844,11.524 C32.948,11.342 33,11.121 33,10.9 C33,10.185 32.415,9.6 31.7,9.6 L12.473,9.6 L11.251,7 L7,7 L7,7 Z M27.8,27.8 C26.37,27.8 25.213,28.97 25.213,30.4 C25.213,31.83 26.37,33 27.8,33 C29.23,33 30.4,31.83 30.4,30.4 C30.4,28.97 29.23,27.8 27.8,27.8 L27.8,27.8 Z" id="Shape" fill="#FFFFFF"></path>
                    </g>
                </g>
            </g>
        </g>
    </g>
</svg>