<?xml version="1.0" encoding="UTF-8"?>
<svg width="24px" height="24px" viewBox="0 0 24 24" version="1.1" xmlns="http://www.w3.org/2000/svg" xmlns:xlink="http://www.w3.org/1999/xlink">
    <!-- Generator: Sketch 64 (93537) - https://sketch.com -->
    <title>矩形</title>
    <desc>Created with Sketch.</desc>
    <g id="页面-1" stroke="none" stroke-width="1" fill="none" fill-rule="evenodd">
        <g id="03" transform="translate(-335.000000, -276.000000)">
            <g id="楼层" transform="translate(335.000000, 276.000000)">
                <rect id="矩形" fill="#000000" fill-rule="nonzero" opacity="0" x="0" y="0" width="24" height="24"></rect>
                <path d="M9.9,16.2 L11.3,16.2 L11.3,10.6 L9.9,10.6 L9.9,16.2 Z M12.7,16.2 L14.1,16.2 L14.1,10.6 L12.7,10.6 L12.7,16.2 Z M8.5,17.6 L15.5,17.6 L15.5,9.2 L8.5,9.2 L8.5,17.6 Z M9.9,7.8 L14.1,7.8 L14.1,6.4 L9.9,6.4 L9.9,7.8 Z M15.5,7.8 L15.5,5 L8.5,5 L8.5,7.8 L5,7.8 L5,9.2 L7.1,9.2 L7.1,19 L16.9,19 L16.9,9.2 L19,9.2 L19,7.8 L15.5,7.8 Z" id="delete-[#1487]" fill="#C4CED9"></path>
            </g>
        </g>
    </g>
</svg>