<?xml version="1.0" encoding="UTF-8"?>
<svg width="64px" height="64px" viewBox="0 0 64 64" version="1.1" xmlns="http://www.w3.org/2000/svg" xmlns:xlink="http://www.w3.org/1999/xlink">
    <!-- Generator: Sketch 64 (93537) - https://sketch.com -->
    <title>矩形</title>
    <desc>Created with Sketch.</desc>
    <g id="页面-1" stroke="none" stroke-width="1" fill="none" fill-rule="evenodd">
        <g id="03" transform="translate(-111.000000, -184.000000)">
            <g id="编组-3备份-3" transform="translate(111.000000, 184.000000)">
                <rect id="矩形" stroke-opacity="0.1" stroke="#000000" stroke-width="0.5" fill="#33A7FF" x="0.25" y="0.25" width="63.5" height="63.5" rx="31.75"></rect>
                <g id="电梯" transform="translate(16.000000, 16.000000)" fill-rule="nonzero">
                    <rect id="矩形" fill="#000000" opacity="0" x="0" y="0" width="32" height="32"></rect>
                    <path d="M27.26875,3.028125 L4.75625,3.028125 C3.803125,3.028125 3.025,3.80625 3.025,4.759375 L3.025,27.271875 C3.025,28.225 3.803125,29.003125 4.75625,29.003125 L27.26875,29.003125 C28.221875,29.003125 29,28.225 29,27.271875 L29,4.759375 C29,3.80625 28.221875,3.028125 27.26875,3.028125 Z M27.003125,27.00625 L5.021875,27.00625 L5.021875,5.025 L27,5.025 L27,27.00625 L27.003125,27.00625 Z M6.021875,26.00625 L15.0125,26.00625 L15.0125,6.025 L6.021875,6.025 L6.021875,26.00625 Z M10.5269547,11.028125 L13.025,15.8247882 L11.3557271,15.8247882 L11.3557271,19.028125 L9.69036357,19.028125 L9.69036357,15.8247882 L8.025,15.8247882 L10.5269547,11.028125 Z M26.015625,6.028125 L16.025,6.028125 L16.025,26.009375 L26.015625,26.009375 L26.015625,6.028125 L26.015625,6.028125 Z M20.9980453,20.028125 L18.5,15.2314618 L20.1692729,15.2314618 L20.1692729,12.028125 L21.8346364,12.028125 L21.8346364,15.2314618 L23.5,15.2314618 L20.9980453,20.028125 L20.9980453,20.028125 Z" id="形状" fill="#FFFFFF"></path>
                </g>
            </g>
        </g>
    </g>
</svg>