<?xml version="1.0" encoding="UTF-8"?>
<svg width="64px" height="64px" viewBox="0 0 64 64" version="1.1" xmlns="http://www.w3.org/2000/svg" xmlns:xlink="http://www.w3.org/1999/xlink">
    <!-- Generator: Sketch 64 (93537) - https://sketch.com -->
    <title>矩形</title>
    <desc>Created with Sketch.</desc>
    <g id="页面-1" stroke="none" stroke-width="1" fill="none" fill-rule="evenodd">
        <g id="03" transform="translate(-199.000000, -184.000000)">
            <g id="编组-3备份-4" transform="translate(199.000000, 184.000000)">
                <rect id="矩形" stroke-opacity="0.1" stroke="#000000" stroke-width="0.5" fill="#53C3EE" x="0.25" y="0.25" width="63.5" height="63.5" rx="31.75"></rect>
                <g id="电动扶梯" transform="translate(16.000000, 16.000000)" fill-rule="nonzero">
                    <rect id="矩形" fill="#000000" opacity="0" x="0" y="0" width="32" height="32"></rect>
                    <path d="M11.7624309,29 L7.6519337,29 C6.19337017,29 5,27.8181818 5,26.3737374 C5,24.9292929 6.19337017,23.7474747 7.6519337,23.7474747 L10.6574586,23.7474747 L20.6906077,13.8114478 C21.1767956,13.3299663 21.8839779,13.023569 22.5469613,13.023569 L26.3480663,13.023569 C27.8066298,13.023569 29,14.2053872 29,15.6498316 C29,17.0942761 27.8066298,18.2760943 26.3480663,18.2760943 L23.6519337,18.2760943 L13.6187845,28.2121212 C13.1325967,28.6936027 12.4696133,29 11.7624309,29 Z M10.5248619,6.28282828 C10.5248619,8.09588428 12.0090008,9.56565657 13.839779,9.56565657 C15.6705572,9.56565657 17.1546961,8.09588428 17.1546961,6.28282828 C17.1546961,4.46977229 15.6705572,3 13.839779,3 C12.0090008,3 10.5248619,4.46977229 10.5248619,6.28282828 Z M10.5248619,20.5084175 L10.5248619,12.5418087 C10.5248619,11.4754123 11.3867403,10.6599327 12.5138122,10.6599327 L15.1657459,10.6599327 C16.2928177,10.6599327 17.1546961,11.4754123 17.1546961,12.5418087 L17.1546961,14.2354972 L10.5248619,20.5084175 Z" id="形状" fill="#FFFFFF"></path>
                </g>
            </g>
        </g>
    </g>
</svg>