<?xml version="1.0" encoding="UTF-8"?>
<svg width="64px" height="64px" viewBox="0 0 64 64" version="1.1" xmlns="http://www.w3.org/2000/svg" xmlns:xlink="http://www.w3.org/1999/xlink">
    <!-- Generator: Sketch 64 (93537) - https://sketch.com -->
    <title>编组 3备份 5</title>
    <desc>Created with Sketch.</desc>
    <g id="页面-1" stroke="none" stroke-width="1" fill="none" fill-rule="evenodd">
        <g id="03" transform="translate(-287.000000, -184.000000)">
            <g id="编组-3备份-5" transform="translate(287.000000, 184.000000)">
                <rect id="矩形" stroke-opacity="0.1" stroke="#000000" stroke-width="0.5" fill="#63D6BC" x="0.25" y="0.25" width="63.5" height="63.5" rx="31.75"></rect>
                <g id="编组-2" transform="translate(16.000000, 16.000000)">
                    <rect id="矩形" fill="#D8D8D8" opacity="0" x="0" y="0" width="32" height="32"></rect>
                    <path d="M21.3398907,12.592 L21.3278689,9.82 L16.9278689,14.536 L28,14.536 L28,12.592 L21.3398907,12.592 Z M16.9278689,19.408 L23.6,19.408 L23.6,22.18 L28,17.464 L16.9278689,17.464 L16.9278689,19.408 Z M21.4699454,25.56 L15.442623,25.56 L15.442623,9.37015014 C15.442623,8.40197785 14.7491404,7.57282721 13.7962197,7.40165595 L8.44262295,6.44 L8.44262295,6.44 L21.4699454,6.44 L21.4699454,8.02 L23.9125683,8.02 L23.9125683,4 L6,4 L6,28 L8.44262295,28 L13.9202056,29.220053 C14.5757859,29.3660742 15.2256123,28.9529948 15.3716334,28.2974145 C15.3933689,28.1998304 15.4029882,28.0999385 15.4002737,28 L15.4002737,28 L15.4002737,28 L23.9125683,28 L23.9125683,23.98 L21.4699454,23.98 L21.4699454,25.56 Z" id="形状" fill="#FFFFFF" fill-rule="nonzero"></path>
                </g>
            </g>
        </g>
    </g>
</svg>