<?xml version="1.0" encoding="UTF-8"?>
<svg width="2001px" height="845px" viewBox="0 0 2001 845" version="1.1" xmlns="http://www.w3.org/2000/svg" xmlns:xlink="http://www.w3.org/1999/xlink">
    <!-- Generator: Sketch 64 (93537) - https://sketch.com -->
    <title>万物-5#-2F@1x</title>
    <desc>Created with Sketch.</desc>
    <g id="页面-1" stroke="none" stroke-width="1" fill="none" fill-rule="evenodd">
        <g id="地图测试" transform="translate(-129.000000, -389.000000)" fill-rule="nonzero">
            <g id="编组-3" transform="translate(129.000000, 389.000000)">
                <g id="万物-5#-2F">
                    <path d="M1928.6,2 L2.7,2 L2.7,831.599995 L414.294746,831.599001 L557,769.345502 L557,831.599 L1656,831.599 L1656,842.314264 L1758.37707,819.879481 L1996.77191,842.401106 L1928.6,745.308014 L1928.6,2 Z" id="形状结合" stroke="#C99B78" stroke-width="4" fill="#FFFFFF"></path>
                    <polygon id="路径" stroke-opacity="0.25" stroke="#000000" fill="#D9DAF4" points="13.1 11 13.1 263.1 265.3 263.1 198.6 11"></polygon>
                    <polygon id="路径" stroke-opacity="0.25" stroke="#000000" fill="#D9DAF4" points="13.1 11 13.1 137.1 231.989796 137.1 198.6 11"></polygon>
                    <polygon id="路径" stroke-opacity="0.25" stroke="#000000" fill="#FFFFFF" points="13.1 280.9 13.1 816.4 387.6 816.4 387.6 706 338.8 525.2 312.4 504.7 298.7 371.8 272.3 280.9"></polygon>
                    <polygon id="路径" stroke-opacity="0.25" stroke="#000000" fill="#D9DAF4" points="560 592.9 884.1 437.3 884.1 272.1 560 272.1"></polygon>
                    <polygon id="路径" stroke-opacity="0.25" stroke="#000000" fill="#EBF8E6" points="560 592.9 650.8 549.3 650.8 272.1 560 272.1"></polygon>
                    <polygon id="路径" stroke-opacity="0.25" stroke="#000000" fill="#EBF8E6" points="650.8 549.3 741.6 505.7 741.6 272.1 650.8 272.1"></polygon>
                    <polygon id="路径" stroke-opacity="0.25" stroke="#000000" fill="#D9DAF4" points="740.9 506 802.3 476.5 802.3 272.1 740.9 272.1"></polygon>
                    <polygon id="路径" stroke-opacity="0.25" stroke="#000000" fill="#D9DAF4" points="826.7 464.8 884.1 437.3 884.1 272.1 826.7 272.1"></polygon>
                    <polygon id="路径" stroke-opacity="0.25" stroke="#000000" fill="#FFFFFF" points="786.3 816.4 786.3 525.2 958.3 436.3 1416.6 436.3 1735.2 592.7 1652.1 816.4"></polygon>
                    <rect id="矩形" fill="#29ABE2" x="560" y="12.5" width="96.4" height="230.6"></rect>
                    <rect id="矩形" stroke-opacity="0.25" stroke="#000000" fill="#FEEFD1" x="560" y="108.5" width="96.4" height="134.6"></rect>
                    <rect id="矩形" stroke-opacity="0.25" stroke="#000000" fill="#FEEFD1" x="560" y="12.5" width="45.1" height="95.9"></rect>
                    <rect id="矩形" stroke-opacity="0.25" stroke="#000000" fill="#FEEFD1" x="605.1" y="12.5" width="51.3" height="95.9"></rect>
                    <polygon id="路径" stroke-opacity="0.25" stroke="#000000" fill="#FFFFFF" points="677.4 12.5 677.4 243.1 917.3 243.1 917.3 294.6 1249.1 294.6 1249.1 151.8 1228 151.8 1228 12.5"></polygon>
                    <polygon id="路径" stroke-opacity="0.25" stroke="#000000" fill="#EBF8E6" points="1228 12.5 1228 151.8 1249.1 151.8 1249.1 294.6 1281.8 294.6 1281.8 12.5"></polygon>
                    <rect id="矩形" fill="#29ABE2" x="1281.8" y="12.5" width="22.5" height="98.4"></rect>
                    <polygon id="路径" stroke-opacity="0.25" stroke="#000000" fill="#D9DAF4" points="1330.2 12.5 1330.2 110.5 1368.3 110.5 1368.3 145.6 1302.3 145.6 1302.3 294.6 1746.9 294.6 1746.9 342.5 1813.9 342.5 1813.9 12.5"></polygon>
                    <polygon id="路径" stroke-opacity="0.25" stroke="#000000" fill="#FFFFFF" points="1915 12.5 1915 816.4 1652.1 816.4 1813.9 380.1 1813.9 12.5"></polygon>
                    <polygon id="路径" fill="#29ABE2" opacity="0" points="1906.2 720.7 1985.4 833.5 1743 810.6 1638.5 833.5 1638.5 805.2 1906.2 805.2"></polygon>
                    <rect id="矩形" stroke-opacity="0.25" stroke="#000000" fill="#FEEFD1" x="917.3" y="243.1" width="45.9" height="51.5"></rect>
                    <rect id="矩形" stroke-opacity="0.25" stroke="#000000" fill="#D9DAF4" x="769.2" y="151.8" width="194" height="68.5"></rect>
                    <rect id="矩形" stroke-opacity="0.25" stroke="#000000" fill="#D9DAF4" x="677.4" y="119.3" width="62.5" height="45.8"></rect>
                    <rect id="矩形" stroke-opacity="0.25" stroke="#000000" fill="#EBF8E6" x="697.8" y="12.3" width="42.1" height="107"></rect>
                    <rect id="矩形" stroke-opacity="0.25" stroke="#000000" fill="#D9DAF4" x="739.9" y="12.5" width="225.6" height="113"></rect>
                    <rect id="矩形" stroke-opacity="0.25" stroke="#000000" fill="#D9DAF4" x="965.5" y="12.5" width="262.5" height="113"></rect>
                    <rect id="矩形" stroke-opacity="0.25" stroke="#000000" fill="#D9DAF4" x="1189.2" y="151.8" width="59.8" height="142.9"></rect>
                    <rect id="矩形" stroke-opacity="0.25" stroke="#000000" fill="#FEEFD1" x="1281.8" y="12.5" width="22.5" height="98.4"></rect>
                    <rect id="矩形" stroke-opacity="0.25" stroke="#000000" fill="#FEEFD1" x="1302.3" y="200.6" width="66" height="94"></rect>
                    <rect id="矩形" stroke-opacity="0.25" stroke="#000000" fill="#FEEFD1" x="1302.3" y="145.6" width="66" height="55"></rect>
                    <rect id="矩形" stroke-opacity="0.25" stroke="#000000" fill="#FEEFD1" x="1330.2" y="12.5" width="29.8" height="98"></rect>
                    <polygon id="矩形" stroke-opacity="0.25" stroke="#000000" fill="#FEEFD1" points="1360 12.5 1393.7 12.5 1393.7 125.5 1368.3 125.5 1368.3 110.5 1360 110.5"></polygon>
                    <rect id="矩形" stroke-opacity="0.25" stroke="#000000" fill="#FEEFD1" x="1393.7" y="12.5" width="153.9" height="113"></rect>
                    <polygon id="路径" stroke-opacity="0.25" stroke="#000000" fill="#FEEFD1" points="1676.4 12.5 1609.6 12.5 1609.6 88.9 1578.6 88.9 1578.6 125.5 1676.4 125.5"></polygon>
                    <rect id="矩形" stroke-opacity="0.25" stroke="#000000" fill="#FEEFD1" x="1676.4" y="12.5" width="50.6" height="113"></rect>
                    <rect id="矩形" stroke-opacity="0.25" stroke="#000000" fill="#FEEFD1" x="1726.9" y="12.5" width="86.9" height="113"></rect>
                    <polygon id="矩形" stroke-opacity="0.25" stroke="#000000" fill="#D9DAF4" points="1368.3 126 1636.5 126 1636.5 294.6 1368.3 294.6"></polygon>
                    <polygon id="路径" stroke-opacity="0.25" stroke="#000000" fill="#D9DAF4" points="1813.9 126 1636.5 126 1636.5 294.6 1746.9 294.6 1746.9 344.6 1813.9 344.6"></polygon>
                    <rect id="矩形" stroke-opacity="0.25" stroke="#000000" fill="#FEEFD1" x="1726.9" y="196.9" width="19.7" height="97.7"></rect>
                    <rect id="矩形" stroke-opacity="0.25" stroke="#000000" fill="#D9DAF4" x="677.4" y="165.1" width="62.5" height="78"></rect>
                    <rect id="矩形" stroke-opacity="0.25" stroke="#000000" fill="#D9DAF4" x="989.6" y="151.8" width="173" height="111.6"></rect>
                    <rect id="矩形" stroke-opacity="0.25" stroke="#000000" fill="#DFE4E3" x="1010.3" y="324.7" width="238.7" height="99.5"></rect>
                    <polygon id="路径" stroke-opacity="0.25" stroke="#000000" fill="#DFE4E3" points="1718.9 324.7 1368.3 324.7 1368.3 436.3 1395.4 436.3 1457.9 436.3 1457.9 457.1 1638.5 545.2"></polygon>
                    <rect id="矩形" stroke-opacity="0.25" stroke="#000000" fill="#FEEFD1" x="989.6" y="243.1" width="45.8" height="20.3"></rect>
                    <rect id="矩形" stroke-opacity="0.25" stroke="#000000" fill="#FEEFD1" x="1547.6" y="12.5" width="62.1" height="76.4"></rect>
                    <rect id="矩形" stroke-opacity="0.25" stroke="#000000" fill="#FEEFD1" x="1547.6" y="88.9" width="31" height="36.6"></rect>
                    <rect id="矩形" stroke-opacity="0.25" stroke="#000000" fill="#FFDDEC" x="1813.9" y="12.5" width="101.1" height="91.8"></rect>
                    <rect id="矩形" stroke-opacity="0.25" stroke="#000000" fill="#CCE9FF" x="1848.7" y="104.3" width="66.3" height="73.2"></rect>
                    <rect id="矩形" stroke-opacity="0.25" stroke="#000000" fill="#EBF8E6" x="1848.7" y="173.7" width="66.3" height="114.2"></rect>
                    <polygon id="路径" stroke-opacity="0.25" stroke="#000000" fill="#D9DAF4" points="1915 288 1848.7 288 1848.7 352.4 1915 377.3"></polygon>
                    <rect id="矩形" stroke-opacity="0.25" stroke="#000000" fill="#CAF1ED" x="1848.7" y="230.8" width="33.1" height="57.1"></rect>
                    <polygon id="路径" stroke-opacity="0.25" stroke="#000000" fill="#FEEFD1" points="1751.9 547.2 1722.8 536.5 1685.4 637.6 1714.4 648.4"></polygon>
                    <rect id="矩形" stroke-opacity="0.25" stroke="#000000" fill="#EBF8E6" x="13.1" y="11" width="127.5" height="39.1"></rect>
                    <rect id="矩形" stroke-opacity="0.25" stroke="#000000" fill="#FEEFD1" x="112.6" y="11" width="28" height="39.1"></rect>
                    <rect id="矩形" stroke-opacity="0.25" stroke="#000000" fill="#FFDDEC" x="13.1" y="50.1" width="99.9" height="87"></rect>
                    <rect id="矩形" stroke-opacity="0.25" stroke="#000000" fill="#CCE9FF" x="13.1" y="137" width="99.9" height="83"></rect>
                    <rect id="矩形" stroke-opacity="0.25" stroke="#000000" fill="#CAF1ED" x="13.1" y="220" width="34.8" height="43.4"></rect>
                    <rect id="矩形" stroke-opacity="0.25" stroke="#000000" fill="#CAF1ED" x="47.9" y="220" width="34.8" height="43.4"></rect>
                    <rect id="矩形" stroke-opacity="0.25" stroke="#000000" fill="#D9DAF4" x="113" y="167.9" width="38.3" height="95.4"></rect>
                    <rect id="矩形" stroke-opacity="0.25" stroke="#000000" fill="#D9DAF4" x="298.7" y="721.2" width="44.5" height="95.4"></rect>
                    <rect id="矩形" stroke-opacity="0.25" stroke="#000000" fill="#EBF8E6" x="343.2" y="721.2" width="44.5" height="95.4"></rect>
                    <polygon id="路径" stroke-opacity="0.25" stroke="#000000" fill="#FEEFD1" points="43.3 424.6 13.1 424.6 13.1 280.9 74.3 280.9 74.3 305.4"></polygon>
                    <polygon id="路径" stroke-opacity="0.25" stroke="#000000" fill="#FEEFD1" points="77.6 816.4 13.1 816.4 13.1 668.4 43.7 668.4 77.6 792"></polygon>
                    <rect id="矩形" stroke-opacity="0.25" stroke="#000000" fill="#FEEFD1" x="113" y="137" width="38.3" height="30.9"></rect>
                    <polygon id="路径" stroke-opacity="0.25" stroke="#000000" fill="#FEEFD1" points="298.7 371.8 298.7 721.2 387.6 721.2 387.6 706 338.8 525.2 312.4 504.7"></polygon>
                    <polygon id="路径" stroke-opacity="0.25" stroke="#000000" fill="#D9DAF4" points="755.6 816.4 560 816.4 560 592.9 755.6 499"></polygon>
                    <rect id="矩形" stroke-opacity="0.25" stroke="#000000" fill="#FEEFD1" x="826.7" y="272.1" width="57.7" height="15.6"></rect>
                    <rect id="矩形" stroke-opacity="0.25" stroke="#000000" fill="#FEEFD1" x="826.7" y="287.8" width="57.7" height="60.9"></rect>
                    <polygon id="路径" stroke-opacity="0.25" stroke="#000000" fill="#D9DAF4" points="1422.9 636 1278.8 636 1278.8 436.3 1416.6 436.3 1432.8 444.3 1422.9 464.2"></polygon>
                    <rect id="矩形" stroke-opacity="0.25" stroke="#000000" fill="#FEEFD1" x="826.7" y="348.7" width="57.7" height="60.9"></rect>
                    <rect id="矩形" stroke-opacity="0.25" stroke="#000000" fill="#FEEFD1" x="741.6" y="272.1" width="60.7" height="15.6"></rect>
                    <rect id="矩形" stroke-opacity="0.25" stroke="#000000" fill="#FFDDEC" x="741.6" y="287.8" width="60.7" height="78.8"></rect>
                    <rect id="矩形" stroke-opacity="0.25" stroke="#000000" fill="#CCE9FF" x="741.6" y="366.6" width="60.7" height="70.7"></rect>
                    <rect id="矩形" stroke-opacity="0.25" stroke="#000000" fill="#D9DAF4" x="986" y="436.3" width="69.1" height="44.3"></rect>
                    <rect id="矩形" stroke-opacity="0.25" stroke="#000000" fill="#D9DAF4" x="1055.1" y="436.3" width="44.3" height="44.3"></rect>
                    <rect id="矩形" stroke-opacity="0.25" stroke="#000000" fill="#D9DAF4" x="1189.3" y="436.3" width="52.6" height="44.3"></rect>
                    <rect id="矩形" stroke-opacity="0.25" stroke="#000000" fill="#D9DAF4" x="1278.8" y="436.3" width="52.6" height="44.3"></rect>
                    <rect id="矩形" stroke-opacity="0.25" stroke="#000000" fill="#D9DAF4" x="1189.3" y="480.6" width="52.6" height="73.2"></rect>
                    <rect id="矩形" stroke-opacity="0.25" stroke="#000000" fill="#D9DAF4" x="1278.8" y="480.6" width="52.6" height="73.2"></rect>
                    <rect id="矩形" stroke-opacity="0.25" stroke="#000000" fill="#D9DAF4" x="1189.3" y="553.8" width="52.6" height="82.2"></rect>
                    <rect id="矩形" stroke-opacity="0.25" stroke="#000000" fill="#D9DAF4" x="986" y="480.6" width="113.4" height="155.4"></rect>
                    <rect id="矩形" stroke-opacity="0.25" stroke="#000000" fill="#D9DAF4" x="1099.4" y="436.3" width="89.9" height="199.7"></rect>
                    <polygon id="路径" stroke-opacity="0.25" stroke="#000000" fill="#D9DAF4" points="1561.1 636 1449.7 636 1449.7 475.7 1457.9 457.1 1561.1 507.2"></polygon>
                    <polygon id="路径" stroke-opacity="0.25" stroke="#000000" fill="#D9DAF4" points="1680.9 650.3 1561.1 605.6 1561.1 507.2 1707.1 578.8"></polygon>
                    <polygon id="路径" stroke-opacity="0.25" stroke="#000000" fill="#D9DAF4" points="786.3 525.2 786.3 634.7 919.2 634.7 919.2 456.5"></polygon>
                    <polygon id="路径" stroke-opacity="0.25" stroke="#000000" fill="#D9DAF4" points="919.2 456.5 919.2 634.7 958.3 634.7 958.3 436.3"></polygon>
                    <rect id="矩形" stroke-opacity="0.25" stroke="#000000" fill="#D9DAF4" x="919.2" y="567.2" width="39.1" height="68.7"></rect>
                    <rect id="矩形" stroke-opacity="0.25" stroke="#000000" fill="#D9DAF4" x="919.2" y="515.3" width="39.1" height="52"></rect>
                    <rect id="矩形" stroke-opacity="0.25" stroke="#000000" fill="#D9DAF4" x="786.3" y="665.3" width="74.6" height="56.4"></rect>
                    <rect id="矩形" stroke-opacity="0.25" stroke="#000000" fill="#D9DAF4" x="905" y="665.3" width="77.8" height="56.4"></rect>
                    <polygon id="路径" stroke-opacity="0.25" stroke="#000000" fill="#D9DAF4" points="1099.4 816.4 977.2 816.4 977.2 721.6 982.8 721.6 982.8 665.3 1099.4 665.3"></polygon>
                    <rect id="矩形" stroke-opacity="0.25" stroke="#000000" fill="#EBF8E6" x="786.3" y="721.6" width="44.5" height="94.8"></rect>
                    <rect id="矩形" stroke-opacity="0.25" stroke="#000000" fill="#EBF8E6" x="830.9" y="721.6" width="35.1" height="94.8"></rect>
                    <rect id="矩形" stroke-opacity="0.25" stroke="#000000" fill="#FEEFD1" x="866" y="721.6" width="53.7" height="94.8"></rect>
                    <rect id="矩形" stroke-opacity="0.25" stroke="#000000" fill="#D9DAF4" x="1099.4" y="665.3" width="89.9" height="151.1"></rect>
                    <rect id="矩形" stroke-opacity="0.25" stroke="#000000" fill="#D9DAF4" x="1189.3" y="772.2" width="52.6" height="44.3"></rect>
                    <rect id="矩形" stroke-opacity="0.25" stroke="#000000" fill="#D9DAF4" x="1189.3" y="733.7" width="52.6" height="38.5"></rect>
                    <rect id="矩形" stroke-opacity="0.25" stroke="#000000" fill="#D9DAF4" x="1189.3" y="665.6" width="52.6" height="68.1"></rect>
                    <rect id="矩形" stroke-opacity="0.25" stroke="#000000" fill="#D9DAF4" x="1278.8" y="665.6" width="91.2" height="150.8"></rect>
                    <rect id="矩形" stroke-opacity="0.25" stroke="#000000" fill="#D9DAF4" x="1370" y="665.6" width="52" height="68.1"></rect>
                    <rect id="矩形" stroke-opacity="0.25" stroke="#000000" fill="#D9DAF4" x="1370" y="733.7" width="52" height="38.5"></rect>
                    <rect id="矩形" stroke-opacity="0.25" stroke="#000000" fill="#D9DAF4" x="1370" y="772.2" width="52" height="44.3"></rect>
                    <rect id="矩形备份-5" stroke-opacity="0.25" stroke="#000000" fill="#D9DAF4" x="1422" y="772.2" width="50" height="44.3"></rect>
                    <rect id="矩形备份-6" stroke-opacity="0.25" stroke="#000000" fill="#D9DAF4" x="1422" y="721.3" width="50" height="51"></rect>
                    <polygon id="路径" stroke-opacity="0.25" stroke="#000000" fill="#EBF8E6" points="1533.3 816.4 1471.9 816.4 1471.9 721.4 1509 721.4 1509 809.4 1533.3 809.4"></polygon>
                    <polygon id="路径" stroke-opacity="0.25" stroke="#000000" fill="#EBF8E6" points="1509 809.4 1509 721.4 1546.1 721.4 1546.1 780.2 1575.5 780.2 1575.5 809.4"></polygon>
                    <rect id="矩形" stroke-opacity="0.25" stroke="#000000" fill="#EBF8E6" x="1546.1" y="721.4" width="29.4" height="29.4"></rect>
                    <polygon id="路径" stroke-opacity="0.25" stroke="#000000" fill="#FEEFD1" points="1687.4 721.4 1597.2 721.4 1597.2 656.6 1711.5 656.6"></polygon>
                    <polygon id="路径" stroke-opacity="0.25" stroke="#000000" fill="#DFE4E3" points="1711.5 656.6 1678.7 656.6 1685.5 637.7 1714.4 648.4"></polygon>
                    <polygon id="路径" stroke-opacity="0.25" stroke="#000000" fill="#FEEFD1" points="1678.7 656.6 1597.2 656.6 1597.2 619.1 1680.9 650.3"></polygon>
                    <polygon id="路径" stroke-opacity="0.25" stroke="#000000" fill="#FEEFD1" points="1652.1 816.4 1647 816.4 1647 721.4 1687.4 721.4"></polygon>
                    <polygon id="路径" stroke-opacity="0.25" stroke="#000000" fill="#D9DAF4" points="1647 816.4 1562.7 816.4 1562.7 809.4 1575.5 809.4 1575.5 721.4 1647 721.4"></polygon>
                    <rect id="矩形" stroke-opacity="0.25" stroke="#000000" fill="#EBF8E6" x="1546.1" y="750.8" width="29.4" height="29.4"></rect>
                    <rect id="矩形" stroke-opacity="0.25" stroke="#000000" fill="#D9DAF4" x="919.7" y="721.6" width="57.5" height="42.2"></rect>
                    <rect id="矩形" stroke-opacity="0.25" stroke="#000000" fill="#D9DAF4" x="919.7" y="763.8" width="57.5" height="52.6"></rect>
                </g>
            </g>
        </g>
    </g>
</svg>