<?xml version="1.0" encoding="UTF-8"?>
<svg width="32px" height="32px" viewBox="0 0 32 32" version="1.1" xmlns="http://www.w3.org/2000/svg" xmlns:xlink="http://www.w3.org/1999/xlink">
    <!-- Generator: Sketch 64 (93537) - https://sketch.com -->
    <title>Shape</title>
    <desc>Created with Sketch.</desc>
    <g id="页面-1" stroke="none" stroke-width="1" fill="none" fill-rule="evenodd">
        <g id="03" transform="translate(-327.000000, -318.000000)">
            <g id="编组" transform="translate(16.000000, 312.000000)">
                <g id="楼层备份-2" transform="translate(311.000000, 6.000000)">
                    <rect id="矩形" fill="#000000" fill-rule="nonzero" opacity="0" x="0" y="0" width="32" height="32"></rect>
                    <path d="M16,6 C21.5228475,6 26,10.4771525 26,16 C26,21.5228475 21.5228475,26 16,26 C10.4771525,26 6,21.5228475 6,16 C6,10.4771525 10.4771525,6 16,6 Z M18,15.5 L14,15.5 L14,20.5 L12,20.5 L12,14.5 C12,13.95 12.45,13.5 13,13.5 L18,13.5 L18,11 L21.5,14.5 L18,18 L18,15.5 Z" id="Shape" fill="#6D7278"></path>
                </g>
            </g>
        </g>
    </g>
</svg>