<?xml version="1.0" encoding="UTF-8"?>
<svg width="32px" height="32px" viewBox="0 0 32 32" version="1.1" xmlns="http://www.w3.org/2000/svg" xmlns:xlink="http://www.w3.org/1999/xlink">
    <!-- Generator: Sketch 64 (93537) - https://sketch.com -->
    <title>矩形</title>
    <desc>Created with Sketch.</desc>
    <g id="页面-1" stroke="none" stroke-width="1" fill="none" fill-rule="evenodd">
        <g id="03" transform="translate(-16.000000, -328.000000)">
            <g id="编组" transform="translate(16.000000, 312.000000)">
                <g id="楼层备份" transform="translate(0.000000, 16.000000)">
                    <rect id="矩形" fill="#000000" fill-rule="nonzero" opacity="0" x="0" y="0" width="32" height="32"></rect>
                    <path d="M16.5,8.5 C17.8811252,8.5 19.1298629,9.0692426 20.0335438,9.98935401 C20.9404537,10.9127532 21.5,12.1891672 21.5,13.6 C21.5,17.020714 17.7188501,21.7867338 16.4998799,23.2340419 C15.2805996,21.7860402 11.5,17.0204651 11.5,13.6 C11.5,12.1891672 12.0595463,10.9127532 12.9664562,9.98935401 C13.8701371,9.0692426 15.1188748,8.5 16.5,8.5 Z M16.5,11.1 C15.8188427,11.1 15.201387,11.3806601 14.7545259,11.835646 C14.3108973,12.2873406 14.0357143,12.9110439 14.0357143,13.6 C14.0357143,14.2889561 14.3108973,14.9126594 14.7545259,15.364354 C15.201387,15.8193399 15.8188427,16.1 16.5,16.1 C17.1811573,16.1 17.798613,15.8193399 18.2454741,15.364354 C18.6891027,14.9126594 18.9642857,14.2889561 18.9642857,13.6 C18.9642857,12.9110439 18.6891027,12.2873406 18.2454741,11.835646 C17.798613,11.3806601 17.1811573,11.1 16.5,11.1 Z" id="Shape" stroke="#6D7278"></path>
                </g>
            </g>
        </g>
    </g>
</svg>