<?xml version="1.0" encoding="UTF-8"?>
<svg width="160px" height="160px" viewBox="0 0 160 160" version="1.1" xmlns="http://www.w3.org/2000/svg" xmlns:xlink="http://www.w3.org/1999/xlink">
    <!-- Generator: Sketch 64 (93537) - https://sketch.com -->
    <title>矩形</title>
    <desc>Created with Sketch.</desc>
    <g id="页面-1" stroke="none" stroke-width="1" fill="none" fill-rule="evenodd">
        <g id="05" transform="translate(-108.000000, -397.000000)" fill-rule="nonzero">
            <g id="没有订单" transform="translate(108.000000, 397.000000)">
                <rect id="矩形" fill="#000000" opacity="0" x="0" y="0" width="160" height="160"></rect>
                <path d="M76.8697883,35.3046825 C78.8197562,35.3046825 80.4618345,33.9704939 80.4618345,32.2257858 C80.4618345,30.4810777 78.8197562,29.1468891 76.8697883,29.1468891 C74.9198203,29.1468891 73.2777422,30.4810777 73.2777422,32.2257858 C73.2777422,33.9704939 74.9198205,35.3046825 76.8697883,35.3046825 L76.8697883,35.3046825 Z M76.8697883,30.2758178 C78.3066067,30.2758178 79.4355356,31.1994869 79.4355356,32.3284156 C79.4355356,33.4573444 78.3066069,34.3810134 76.8697883,34.3810134 C75.4329697,34.3810134 74.3040411,33.4573444 74.3040411,32.3284156 C74.3040411,31.1994869 75.4329698,30.2758178 76.8697883,30.2758178 L76.8697883,30.2758178 Z M93.2905709,72.456703 C93.2905709,66.1962797 88.1590764,61.0647852 81.898653,61.0647852 C75.6382295,61.0647852 70.5067352,66.1962797 70.5067352,72.456703 C70.5067352,78.7171262 75.6382297,83.8486209 81.898653,83.8486209 C88.1590762,83.8486209 93.2905709,78.7171264 93.2905709,72.456703 Z M81.7960231,82.3091725 C76.3566389,82.3091725 71.9435536,77.8960872 71.9435536,72.456703 C71.9435536,67.0173187 76.3566389,62.6042334 81.7960231,62.6042334 C87.2354073,62.6042334 91.6484927,67.0173187 91.6484927,72.456703 C91.7511225,77.8960872 87.2354073,82.3091725 81.7960231,82.3091725 Z M98.3194355,67.3252084 C97.9089159,67.3252084 97.4983964,67.6330981 97.4983964,68.1462477 C97.4983964,68.6593972 97.8062861,68.9672867 98.3194355,68.9672867 L109.198204,68.9672867 C109.608723,68.9672867 110.019243,68.659397 110.019243,68.1462477 C110.019243,67.6330983 109.711353,67.3252084 109.198204,67.3252084 L98.3194355,67.3252084 Z M97.4983964,77.4855677 C97.4983964,77.8960872 97.8062861,78.3066069 98.3194355,78.3066069 L115.253367,78.3066069 C115.663887,78.3066069 116.074407,77.9987172 116.074407,77.4855677 C116.074407,76.9724181 115.766517,76.6645286 115.253367,76.6645286 L98.3194355,76.6645286 C97.9089159,76.6645286 97.4983964,77.0750481 97.4983964,77.4855677 Z" id="形状" fill="#0091FF" opacity="0.400000006"></path>
                <path d="M82.2779038,65 C80.6358255,65 79.4042669,65.5131495 78.5832277,66.4368184 C77.351669,67.771007 77.454299,69.720975 77.5569288,69.7209748 C77.5569288,70.1314944 77.9674483,70.4393841 78.3779679,70.4393842 C78.7884874,70.4393844 79.0963771,70.0288647 79.0963771,69.618345 C79.0963771,69.618345 78.9937472,68.3867863 79.8147863,67.4631173 C80.3279358,66.847338 81.2516047,66.5394483 82.3805337,66.5394483 C83.8173521,66.5394483 84.7410212,67.1552277 84.9462808,68.1815266 C85.1515407,69.2078255 84.6383912,70.2341244 83.8173521,70.5420141 C81.1489749,71.568313 81.1489749,73.4156509 81.1489749,75.1603591 L81.1489749,75.3656189 C81.1489749,75.7761384 81.4568646,76.186658 81.9700141,76.186658 C82.4831637,76.186658 82.7910532,75.8787683 82.7910532,75.3656189 L82.7910532,75.1603591 C82.7910532,73.5182808 82.7910532,72.5946117 84.5357613,71.9788325 C86.0752097,71.3630531 86.8962488,69.618345 86.5883591,67.8736369 C85.9725797,66.5394483 84.7410212,65 82.2779038,65 L82.2779038,65 Z" id="路径" fill="#0091FF"></path>
                <path d="M81.0776139,79.1276459 C81.0776139,79.5810933 81.4452057,79.9486851 81.898653,79.9486851 C82.3521004,79.9486851 82.7196922,79.5810933 82.7196922,79.1276459 C82.7196922,78.6741985 82.3521004,78.3066068 81.898653,78.3066068 C81.4452057,78.3066068 81.0776139,78.6741985 81.0776139,79.1276459 Z" id="路径" fill="#0091FF"></path>
                <path d="M22.5785759,69.9935856 C24.9390634,69.9935856 26.8890314,68.0436177 26.8890314,65.6831302 C26.8890314,63.3226427 24.9390634,61.3726748 22.5785759,61.3726748 C20.2180884,61.3726748 18.2681206,63.3226428 18.2681206,65.6831302 C18.2681206,68.0436175 20.1154586,69.9935856 22.5785759,69.9935856 Z M22.5785759,62.8094933 C24.1180244,62.8094933 25.3495831,64.041052 25.3495831,65.5805003 C25.3495831,67.1199486 24.1180244,68.3515073 22.5785759,68.3515073 C21.0391275,68.3515073 19.8075689,67.1199486 19.8075689,65.5805003 C19.8075689,64.041052 21.0391277,62.8094933 22.5785759,62.8094933 Z M136.189865,78.2039769 C136.395125,78.2039769 136.600385,78.101347 136.703015,77.9987172 L140.089801,74.9198205 L143.271328,77.5881975 C143.579217,77.7934573 143.989737,77.7934573 144.297627,77.5881975 L147.684413,74.9198205 L150.76331,77.8960872 C151.0712,78.2039769 151.584349,78.2039769 151.892239,77.8960872 C152.200128,77.5881975 152.200128,77.0750481 151.892239,76.7671584 L148.300192,73.2777422 C147.992303,72.9698525 147.581783,72.9698525 147.273894,73.2777422 L143.887107,75.9461194 L140.602951,73.2777422 C140.295061,73.0724823 139.884541,73.0724823 139.576652,73.2777422 L135.676716,76.7671584 C135.368826,77.0750481 135.368826,77.5881975 135.574086,77.8960872 C135.779346,78.101347 135.984605,78.2039769 136.189865,78.2039769 L136.189865,78.2039769 Z M64.3489416,76.5618986 C64.7594611,76.5618986 65.1699808,76.2540089 65.1699808,75.7408595 L65.1699808,67.5304683 C65.1699808,67.1199488 64.8620911,66.7094291 64.3489416,66.7094291 C63.835792,66.7094291 63.5279025,67.0173187 63.5279025,67.5304683 L63.5279025,75.7408595 C63.5279025,76.2540091 63.938422,76.5618986 64.3489416,76.5618986 Z M63.5279025,86.8248878 C63.5279025,88.7748558 65.1699808,90.4169339 67.1199487,90.4169339 L68.0436177,90.4169339 C68.4541372,90.4169339 68.8646569,90.1090442 68.8646569,89.5958948 C68.8646569,89.0827455 68.5567672,88.7748558 68.0436177,88.7748556 L67.1199487,88.7748556 C65.99102,88.7748556 65.0673509,87.8511866 65.0673509,86.7222578 L65.0673509,83.9512508 C65.0673509,83.5407313 64.7594613,83.1302117 64.2463117,83.1302117 C63.7331622,83.1302117 63.4252727,83.4381014 63.4252727,83.9512508 L63.4252727,86.8248878 L63.5279025,86.8248878 Z M124.387428,63.4252727 L124.387428,71.6356639 C124.387428,72.0461834 124.695318,72.456703 125.208467,72.456703 C125.721617,72.456703 126.029506,72.1488133 126.029506,71.6356639 L126.029506,63.4252727 C126.029506,63.0147531 125.721616,62.6042334 125.208467,62.6042334 C124.695318,62.6042334 124.387428,63.014753 124.387428,63.4252727 Z M76.1513791,54.3938422 C76.1513791,53.9833227 75.8434894,53.5728031 75.33034,53.5728031 L67.1199488,53.5728031 C65.1699808,53.5728031 63.5279025,55.2148814 63.5279025,57.1648492 L63.5279025,59.320077 C63.5279025,59.7305966 63.8357922,60.1411161 64.3489416,60.1411161 C64.8620909,60.1411161 65.1699806,59.8332264 65.1699808,59.320077 L65.1699808,57.1648492 C65.1699808,56.0359205 66.0936498,55.1122514 67.2225786,55.1122514 L75.4329698,55.1122514 C75.8434894,55.2148813 76.1513791,54.9069916 76.1513791,54.3938422 L76.1513791,54.3938422 Z M116.484926,55.2148814 L122.33483,55.2148814 C122.950609,55.2148814 123.463759,55.4201413 123.874278,55.9332906 C123.976908,56.1385503 124.284798,56.1385503 124.490058,56.1385503 C124.695318,56.1385503 124.900577,56.0359205 125.003207,55.9332906 C125.311097,55.6254009 125.311097,55.1122516 125.003207,54.8043617 C124.284798,54.0859525 123.361129,53.5728031 122.33483,53.5728031 L116.484926,53.5728031 C116.074407,53.5728031 115.663887,53.8806928 115.663887,54.3938422 C115.663887,54.9069916 115.971777,55.2148813 116.484926,55.2148814 L116.484926,55.2148814 Z M125.105837,79.0250161 C124.695317,79.0250161 124.284798,79.3329058 124.284798,79.8460552 L124.284798,86.9275177 C124.284798,87.2354073 124.182168,87.543297 124.079538,87.7485567 C123.874278,88.1590763 124.079538,88.5695958 124.490058,88.7748556 C124.592688,88.7748556 124.695318,88.8774856 124.797947,88.8774856 C125.105837,88.8774856 125.413727,88.6722258 125.516357,88.4669659 C125.721616,88.0564464 125.824246,87.5432969 125.824246,87.0301475 L125.824246,79.948685 C125.926876,79.4355355 125.516357,79.0250161 125.105837,79.0250161 L125.105837,79.0250161 Z M91.8537523,55.2148814 C92.2642719,55.2148814 92.6747916,54.9069917 92.6747916,54.3938422 C92.6747916,53.8806927 92.3669019,53.5728031 91.8537523,53.5728031 L83.6433611,53.5728031 C83.2328416,53.5728031 82.822322,53.8806928 82.822322,54.3938422 C82.822322,54.9069916 83.1302117,55.2148814 83.6433611,55.2148814 L91.8537523,55.2148814 Z M92.7774214,90.5195638 L100.987813,90.5195638 C101.398332,90.5195638 101.808852,90.2116741 101.808852,89.6985247 C101.808852,89.1853753 101.500962,88.8774856 100.987813,88.8774856 L92.7774214,88.8774856 C92.3669019,88.8774856 91.9563823,89.1853753 91.9563823,89.6985247 C91.9563823,90.2116741 92.264272,90.5195638 92.7774214,90.5195638 Z M76.3566389,88.9801155 C75.9461194,88.9801155 75.5355997,89.2880052 75.5355997,89.8011545 C75.5355997,90.3143039 75.8434894,90.6221938 76.3566389,90.6221938 L84.5670302,90.6221938 C84.9775497,90.6221938 85.3880692,90.3143041 85.3880692,89.8011545 C85.3880692,89.288005 85.0801795,88.9801155 84.5670302,88.9801155 L76.3566389,88.9801155 L76.3566389,88.9801155 Z" id="形状" fill="#111111" opacity="0.200000003"></path>
                <path d="M48.7491983,112.379731 L104.990378,112.379731 C107.556126,112.379731 109.608724,110.327133 109.608724,107.761385 L109.608724,90.5195638 L117.305965,90.5195638 C117.716485,90.5195638 118.127005,90.2116741 118.127005,89.6985247 C118.127005,89.1853753 117.819115,88.8774856 117.305965,88.8774856 L109.506094,88.8774856 C109.403464,88.7748558 109.300834,88.7748558 109.198204,88.7748556 C108.992944,88.7748556 108.890314,88.8774855 108.787684,88.9801155 C108.582425,89.0827453 108.377165,89.390635 108.377165,89.5958948 C108.377165,89.8011547 108.479795,90.0064144 108.685055,90.2116742 L108.685055,107.658756 C108.685055,109.711353 107.042976,111.250802 105.093008,111.250802 L48.7491983,111.250802 C46.6966005,111.250802 45.157152,109.608723 45.157152,107.658756 L45.157152,40.8466966 C45.157152,38.7940988 46.7992303,37.2546503 48.7491983,37.2546505 L56.5490698,37.2546505 C56.5490698,38.8967288 57.8832584,40.2309173 59.5253367,40.2309172 L94.11161,40.2309172 C95.7536883,40.2309172 97.0878769,38.8967286 97.0878769,37.2546505 L104.990378,37.2546505 C107.042976,37.2546505 108.582425,38.8967287 108.582425,40.8466966 L108.582425,53.8806928 C108.479795,53.778063 108.274535,53.675433 108.171905,53.675433 L103.96408,53.675433 L103.96408,47.4150097 C103.96408,44.8492623 101.911482,42.7966645 99.3457344,42.7966645 L54.496472,42.7966645 C51.9307247,42.7966645 49.8781269,44.8492623 49.878127,47.4150097 L49.878127,101.090443 C49.878127,103.65619 51.9307248,105.708788 54.496472,105.708788 L99.4483644,105.708788 C102.014112,105.708788 104.06671,103.65619 104.066709,101.090443 L104.066709,90.3143041 C104.066709,90.0064144 103.86145,89.8011545 103.55356,89.8011545 C103.24567,89.8011545 103.04041,90.0064144 103.04041,90.3143041 L103.04041,101.090443 C103.04041,103.14304 101.398332,104.682489 99.4483644,104.682489 L54.496472,104.682489 C52.4438742,104.682489 50.9044258,103.04041 50.9044259,101.090443 L50.9044259,47.4150097 C50.9044259,45.3624119 52.5465042,43.8229634 54.496472,43.8229634 L99.4483644,43.8229634 C101.500962,43.8229634 103.040411,45.4650417 103.04041,47.4150097 L103.04041,53.675433 L100.064144,53.675433 C99.6536242,53.675433 99.2431047,53.9833227 99.2431045,54.496472 C99.2431044,55.0096214 99.5509942,55.3175111 100.064144,55.3175113 L108.274535,55.3175113 C108.685055,55.3175113 108.992944,55.0096216 108.992944,54.599102 L109.198204,54.599102 C109.506094,54.599102 109.711353,54.3938422 109.711353,54.0859525 L109.711353,40.8466966 C109.711353,38.2809492 107.658756,36.2283514 105.093008,36.2283516 L97.1905067,36.2283516 L97.1905067,35.3046825 C97.1905067,33.6626042 95.8563181,32.3284156 94.2142398,32.3284156 L84.4644003,32.3284156 C84.4644003,28.9416292 81.0776139,26.0679923 76.9724183,26.0679923 C72.8672227,26.0679923 69.4804363,28.8389994 69.4804363,32.3284156 L59.5253367,32.3284156 C57.8832584,32.3284156 56.5490698,33.6626042 56.5490698,35.3046825 L56.5490698,36.2283516 L48.7491983,36.2283516 C46.1834509,36.2283516 44.1308531,38.2809494 44.1308531,40.8466966 L44.1308531,107.761385 C44.1308531,110.327133 46.1834509,112.379731 48.7491983,112.379731 Z M57.5753688,35.2020527 C57.5753688,34.1757537 58.4990378,33.2520847 59.5253367,33.2520847 L70.5067352,33.2520847 L70.4041052,32.6363053 L70.4041052,32.1231559 C70.4041052,29.2495191 73.277742,26.8890314 76.8697883,26.8890314 C80.4618345,26.8890314 83.3354714,29.2495189 83.3354714,32.1231559 L83.3354714,32.6363053 L83.2328416,33.2520847 L94.11161,33.2520847 C95.1379089,33.2520847 96.061578,34.1757538 96.061578,35.2020527 L96.061578,37.1520205 C96.061578,38.1783194 95.1379089,39.1019884 94.11161,39.1019884 L59.5253367,39.1019884 C58.4990378,39.1019884 57.5753688,38.1783194 57.5753688,37.1520205 L57.5753688,35.2020527 L57.5753688,35.2020527 Z M34.6889031,125.003207 L125.413727,125.003207 C125.824246,125.003207 126.234766,124.695317 126.234766,124.182168 C126.234766,123.669019 125.926876,123.361129 125.413727,123.361129 L34.6889031,123.361129 C34.2783836,123.361129 33.8678641,123.669019 33.8678641,124.182168 C33.8678641,124.695318 34.2783836,125.003207 34.6889031,125.003207 Z M155.586915,130.750481 L110.429763,130.750481 C110.019243,130.750481 109.608724,131.058371 109.608724,131.57152 C109.608724,132.08467 109.916613,132.392559 110.429763,132.392559 L155.586915,132.392559 C155.997434,132.392559 156.407954,132.08467 156.407954,131.57152 C156.407954,131.058371 155.997434,130.750481 155.586915,130.750481 Z M106.119307,130.750481 L99.7562541,130.750481 C99.3457345,130.750481 98.9352148,131.058371 98.9352148,131.57152 C98.9352148,132.08467 99.2431045,132.392559 99.7562541,132.392559 L106.119307,132.392559 C106.529827,132.392559 106.940346,132.08467 106.940346,131.57152 C106.940346,131.058371 106.632457,130.750481 106.119307,130.750481 Z M95.5484284,130.750481 L3.28415656,130.750481 C2.87363703,130.750481 2.46311734,131.058371 2.46311734,131.57152 C2.46311734,132.08467 2.77100703,132.392559 3.28415656,132.392559 L95.5484284,132.392559 C95.958948,132.392559 96.3694677,132.08467 96.3694677,131.57152 C96.3694677,131.058371 95.9589481,130.750481 95.5484284,130.750481 Z M134.034638,110.737652 C136.703015,110.737652 138.858243,108.582425 138.858243,105.914047 C138.858243,103.24567 136.703015,101.090443 134.034638,101.090443 C131.36626,101.090443 129.211033,103.24567 129.211033,105.914047 C129.313663,108.582425 131.46889,110.737652 134.034638,110.737652 Z M134.034638,102.732521 C135.881976,102.732521 137.318794,104.169339 137.318794,106.016677 C137.318794,107.864015 135.881976,109.300834 134.034638,109.300834 C132.1873,109.300834 130.750481,107.864015 130.750481,106.016677 C130.853111,104.169339 132.28993,102.732521 134.034638,102.732521 Z M7.49198203,99.1404747 C7.69724188,99.1404747 7.90250156,99.0378448 8.00513156,98.9352148 L11.391918,95.8563181 L14.5734445,98.5246953 C14.8813342,98.7299552 15.2918538,98.7299552 15.5997434,98.5246953 L18.9865298,95.8563181 L22.0654266,98.832585 C22.3733163,99.1404747 22.8864656,99.1404747 23.1943553,98.832585 C23.502245,98.5246953 23.502245,98.0115459 23.1943553,97.7036563 L19.4996792,94.3168698 C19.1917895,94.0089802 18.78127,94.0089802 18.4733803,94.3168698 L15.0865939,96.985247 L11.8024375,94.3168698 C11.4945478,94.11161 11.0840283,94.11161 10.7761386,94.3168698 L6.87620266,97.8062861 C6.56831297,98.1141758 6.56831297,98.6273252 6.77357281,98.9352148 C7.0814625,99.0378447 7.28672234,99.1404747 7.49198203,99.1404747 Z" id="形状" fill="#111111" opacity="0.200000003"></path>
            </g>
        </g>
    </g>
</svg>