<?xml version="1.0" encoding="UTF-8"?>
<svg width="64px" height="64px" viewBox="0 0 64 64" version="1.1" xmlns="http://www.w3.org/2000/svg" xmlns:xlink="http://www.w3.org/1999/xlink">
    <!-- Generator: Sketch 64 (93537) - https://sketch.com -->
    <title>矩形</title>
    <desc>Created with Sketch.</desc>
    <g id="页面-1" stroke="none" stroke-width="1" fill="none" fill-rule="evenodd">
        <g id="03" transform="translate(-24.000000, -184.000000)">
            <g id="编组-3备份-3" transform="translate(24.000000, 184.000000)">
                <rect id="矩形" stroke-opacity="0.1" stroke="#000000" stroke-width="0.5" fill="#825FFF" x="0.25" y="0.25" width="63.5" height="63.5" rx="31.75"></rect>
                <g id="wc" transform="translate(16.000000, 16.000000)" fill-rule="nonzero">
                    <rect id="矩形" fill="#000000" opacity="0" x="0" y="0" width="32" height="32"></rect>
                    <path d="M21.688,8.31334706 C20.9377778,8.31334706 20.3022222,8.05289357 19.7813333,7.53200468 C19.2604445,7.01111578 19,6.37556023 19,5.62533802 C19,4.87511581 19.2604444,4.25022693 19.7813333,3.75067136 C20.3022223,3.2511158 20.9377778,3.00089358 21.688,3.00000235 C22.4382222,2.99911583 23.0737777,3.24933805 23.5946667,3.75067136 C24.1155556,4.25200468 24.376,4.87689356 24.376,5.62533802 C24.376,6.37378248 24.1155555,7.00933803 23.5946667,7.53200468 C23.0737778,8.05467132 22.4382222,8.31511577 21.688,8.31334706 L21.688,8.31334706 Z M9.688,8.31334706 C8.93777777,8.31334706 8.30222222,8.05289357 7.78133334,7.53200468 C7.26044447,7.01111578 7,6.37556023 7,5.62533802 C7,4.87511581 7.26044443,4.25022693 7.78133334,3.75067136 C8.30222226,3.2511158 8.93777781,3.00089358 9.688,3.00000235 C10.4382222,2.99911583 11.0737777,3.24933805 11.5946667,3.75067136 C12.1155556,4.25200468 12.376,4.87689356 12.376,5.62533802 C12.376,6.37378248 12.1155555,7.00933803 11.5946667,7.53200468 C11.0737778,8.05467132 10.4382222,8.31511577 9.688,8.31334706 L9.688,8.31334706 Z M19.688,28.625338 L19.688,21.625338 L15.688,21.625338 L19.0626667,11.5000047 C19.5213333,10.2502269 20.3755555,9.62533802 21.6253333,9.62533802 L21.7506667,9.62533802 C23.0004444,9.62533802 23.8546666,10.2502269 24.3133333,11.5000047 L27.688,21.625338 L23.688,21.625338 L23.688,28.625338 L19.688,28.625338 Z M7,19.625338 L5,19.625338 L5,12.313338 C5,11.6048936 5.27066667,10.9800047 5.812,10.4386714 C6.35333333,9.89733803 6.97822222,9.62667136 7.68666666,9.62667136 L11.6866667,9.62667136 C12.3951111,9.62667136 13.02,9.89733803 13.5613333,10.4386714 C14.1026666,10.9800047 14.3733333,11.6048936 14.3733333,12.313338 L14.3733333,19.625338 L12.3733333,19.625338 L12.3733333,28.625338 L6.99866666,28.625338 L7,19.625338 Z" id="形状" fill="#FFFFFF"></path>
                </g>
            </g>
        </g>
    </g>
</svg>