<?xml version="1.0" encoding="UTF-8"?>
<svg width="32px" height="32px" viewBox="0 0 32 32" version="1.1" xmlns="http://www.w3.org/2000/svg" xmlns:xlink="http://www.w3.org/1999/xlink">
    <!-- Generator: Sketch 64 (93537) - https://sketch.com -->
    <title>矩形</title>
    <desc>Created with Sketch.</desc>
    <defs>
        <filter x="-9.1%" y="-64.6%" width="118.1%" height="229.2%" filterUnits="objectBoundingBox" id="filter-1">
            <feOffset dx="0" dy="4" in="SourceAlpha" result="shadowOffsetOuter1"></feOffset>
            <feGaussianBlur stdDeviation="6" in="shadowOffsetOuter1" result="shadowBlurOuter1"></feGaussianBlur>
            <feColorMatrix values="0 0 0 0 0   0 0 0 0 0   0 0 0 0 0  0 0 0 0.08 0" type="matrix" in="shadowBlurOuter1" result="shadowMatrixOuter1"></feColorMatrix>
            <feMerge>
                <feMergeNode in="shadowMatrixOuter1"></feMergeNode>
                <feMergeNode in="SourceGraphic"></feMergeNode>
            </feMerge>
        </filter>
    </defs>
    <g id="页面-1" stroke="none" stroke-width="1" fill="none" fill-rule="evenodd">
        <g id="01" transform="translate(-32.000000, -116.000000)">
            <g id="编组-4" filter="url(#filter-1)" transform="translate(16.000000, 108.000000)">
                <g id="编组-3">
                    <g id="编组-2" transform="translate(16.000000, 8.000000)">
                        <rect id="矩形" fill="#D8D8D8" opacity="0" x="0" y="0" width="32" height="32"></rect>
                        <path d="M26,24.586 L24.586,26 L20.343,21.758 L21.757,20.343 L26,24.586 Z M14,20 C10.692,20 8,17.309 8,14 C8,10.692 10.692,8 14,8 C17.308,8 20,10.692 20,14 C20,17.309 17.308,20 14,20 L14,20 Z M14,6 C9.582,6 6,9.582 6,14 C6,18.418 9.582,22 14,22 C18.418,22 22,18.418 22,14 C22,9.582 18.418,6 14,6 L14,6 Z" id="search_left-[#1504]" fill="#A2AAB3"></path>
                    </g>
                </g>
            </g>
        </g>
    </g>
</svg>